<?xml version="1.0" encoding="iso-8859-1"?>
<!-- Generator: Adobe Illustrator 19.0.0, SVG Export Plug-In . SVG Version: 6.00 Build 0)  -->
<svg version="1.1" id="Capa_1" xmlns="http://www.w3.org/2000/svg" xmlns:xlink="http://www.w3.org/1999/xlink" x="0px" y="0px"
	 viewBox="0 0 512 512" style="enable-background:new 0 0 512 512;" xml:space="preserve">
<path style="fill:#29ABE2;" d="M401.067,8.533h42.667c14.14,0,25.6,11.46,25.6,25.6v332.8c0,14.14-11.46,25.6-25.6,25.6H68.267
	c-14.14,0-25.6-11.46-25.6-25.6v-332.8c0-14.14,11.46-25.6,25.6-25.6H401.067z"/>
<g>
	<path style="fill:#F15A24;" d="M189.218,106.274l-25.6-15.949c7.535-11.964,3.942-27.767-8.021-35.302s-27.767-3.942-35.302,8.021
		c-3.413,5.427-4.668,11.93-3.524,18.236c-13.594,3.874-21.478,18.031-17.613,31.633c3.874,13.594,18.031,21.478,31.633,17.613
		c6.161-1.758,11.435-5.751,14.797-11.213l28.16,17.502l138.769,86.383l35.9,22.34c-7.535,11.964-3.942,27.767,8.021,35.302
		c11.964,7.535,27.767,3.942,35.302-8.021c3.413-5.427,4.668-11.93,3.524-18.236c13.602-3.866,21.487-18.031,17.621-31.625
		c-3.866-13.602-18.031-21.487-31.625-17.621c-6.17,1.758-11.452,5.76-14.805,11.221l-33.28-20.727L189.218,106.274z"/>
	<path style="fill:#F15A24;" d="M322.782,106.274l25.6-15.949c-7.535-11.964-3.942-27.767,8.021-35.302
		c11.964-7.535,27.767-3.942,35.302,8.021c3.413,5.427,4.668,11.93,3.524,18.236c13.594,3.874,21.478,18.031,17.613,31.633
		c-3.866,13.602-18.031,21.478-31.633,17.613c-6.161-1.758-11.435-5.751-14.797-11.213l-28.16,17.502l-138.769,86.383l-35.9,22.34
		c7.535,11.964,3.942,27.767-8.021,35.302c-11.964,7.535-27.767,3.942-35.302-8.021c-3.413-5.427-4.668-11.93-3.524-18.236
		c-13.602-3.866-21.487-18.031-17.621-31.625c3.866-13.594,18.031-21.487,31.625-17.621c6.17,1.758,11.452,5.76,14.805,11.221
		l33.28-20.727L322.782,106.274z"/>
</g>
<path style="fill:#E6E6E6;" d="M110.933,469.333h290.133c9.429,0,17.067,7.637,17.067,17.067l0,0
	c0,9.429-7.637,17.067-17.067,17.067H110.933c-9.429,0-17.067-7.637-17.067-17.067l0,0
	C93.867,476.971,101.504,469.333,110.933,469.333z"/>
<polygon style="fill:#B3B3B3;" points="349.867,469.333 307.2,392.533 204.8,392.533 162.133,469.333 "/>
<path style="fill:#E6E6E6;" d="M42.667,324.267h426.667l0,0v42.667c0,14.14-11.46,25.6-25.6,25.6H68.267
	c-14.14,0-25.6-11.46-25.6-25.6V324.267L42.667,324.267z"/>
<path style="fill:#FBB03B;" d="M341.333,159.403c0.068-47.13-38.084-85.385-85.214-85.453s-85.385,38.084-85.453,85.214
	c-0.034,26.897,12.612,52.241,34.133,68.386v42.786h102.4V227.55C328.678,211.482,341.333,186.231,341.333,159.403z"/>
<g>
	<path style="fill:#F15A24;" d="M273.067,145.067l34.133-8.533v17.126c0,9.395-7.612,17.007-17.007,17.007h-0.119
		c-9.395,0-17.007-7.612-17.007-17.007V145.067z"/>
	<path style="fill:#F15A24;" d="M204.911,136.653l34.022,8.414v8.644c0.009,9.378-7.578,16.99-16.956,17.015l0,0
		c-9.395,0.026-17.041-7.569-17.067-16.964c0-0.017,0-0.034,0-0.051V136.653z"/>
</g>
<path d="M59.733,435.2h51.2v-17.067h-51.2c-23.552-0.026-42.641-19.115-42.667-42.667V307.2H0v68.267
	C0.034,408.439,26.761,435.166,59.733,435.2z"/>
<rect y="273.067" width="17.067" height="17.067"/>
<rect x="247.467" y="349.867" width="17.067" height="17.067"/>
<path d="M443.733,401.067c18.85,0,34.133-15.283,34.133-34.133v-332.8C477.867,15.283,462.583,0,443.733,0H68.267
	c-18.85,0-34.133,15.283-34.133,34.133v332.8c0,18.85,15.283,34.133,34.133,34.133h122.027L157.107,460.8h-46.174
	c-14.14,0-25.6,11.46-25.6,25.6s11.46,25.6,25.6,25.6h290.133c14.14,0,25.6-11.46,25.6-25.6s-11.46-25.6-25.6-25.6h-46.182
	l-33.178-59.733H443.733z M68.267,17.067h375.467c9.429,0,17.067,7.637,17.067,17.067v281.6H51.2v-281.6
	C51.2,24.704,58.837,17.067,68.267,17.067z M51.2,366.933V332.8h409.6v34.133c0,9.429-7.637,17.067-17.067,17.067H68.267
	C58.837,384,51.2,376.363,51.2,366.933z M409.6,486.4c0,4.71-3.823,8.533-8.533,8.533H110.933c-4.71,0-8.533-3.823-8.533-8.533
	s3.823-8.533,8.533-8.533h290.133C405.777,477.867,409.6,481.69,409.6,486.4z M335.36,460.8H176.64l33.186-59.733h92.356
	L335.36,460.8z"/>
<rect x="494.933" y="76.8" width="17.067" height="145.067"/>
<rect x="494.933" y="238.933" width="17.067" height="17.067"/>
<path d="M290.193,179.2c14.089-0.034,25.506-11.452,25.54-25.54v-17.126c0-4.71-3.823-8.533-8.533-8.533
	c-0.7,0-1.399,0.085-2.074,0.256l-34.133,8.533c-3.797,0.947-6.46,4.361-6.46,8.277v8.593
	C264.567,167.799,276.053,179.234,290.193,179.2L290.193,179.2z M281.6,151.731l17.067-4.267v6.195c0,4.71-3.823,8.533-8.533,8.533
	c-4.71,0-8.533-3.823-8.533-8.533V151.731z"/>
<path d="M203.895,171.81c4.77,4.787,11.264,7.467,18.022,7.45h0.094c14.054-0.077,25.421-11.477,25.455-25.54v-8.653
	c0-3.925-2.679-7.347-6.485-8.286l-34.022-8.414c-4.574-1.135-9.199,1.664-10.334,6.238c-0.162,0.674-0.247,1.357-0.247,2.048
	v17.067C196.361,160.512,199.066,167.031,203.895,171.81z M213.444,147.55l16.956,4.198v1.971c-0.034,4.659-3.789,8.431-8.448,8.474
	c-2.253-0.017-4.403-0.905-6.016-2.475c-1.596-1.579-2.492-3.729-2.492-5.973V147.55z"/>
<path d="M233.097,218.692L256,211.063l22.903,7.629l5.393-16.213l-25.6-8.533c-1.749-0.58-3.644-0.58-5.393,0l-25.6,8.533
	L233.097,218.692z"/>
<path d="M105.813,134.767c13.218,8.201,30.31,6.451,41.591-4.267l16.589,10.3c-3.499,17.246-2.039,35.132,4.207,51.584
	l-20.83,12.988c-13.636-13.013-35.243-12.501-48.256,1.135c-10.752,11.264-12.51,28.382-4.284,41.6
	c3.174,5.094,7.654,9.25,12.971,12.041c0.418,15.462,11.23,28.681,26.3,32.162c2.56,0.58,5.18,0.862,7.808,0.853
	c18.85-0.026,34.108-15.334,34.082-34.185c-0.009-3.456-0.538-6.895-1.57-10.189l21.845-13.542v35.089
	c0,4.71,3.823,8.533,8.533,8.533h102.4c4.71,0,8.533-3.823,8.533-8.533v-35.081l21.845,13.594
	c-5.658,17.98,4.335,37.146,22.323,42.803c3.294,1.041,6.733,1.57,10.189,1.57c2.628,0.009,5.248-0.273,7.808-0.853
	c15.07-3.473,25.89-16.7,26.3-32.162c5.316-2.79,9.788-6.938,12.971-12.032c9.975-16,5.094-37.052-10.906-47.027
	c-13.227-8.252-30.362-6.485-41.634,4.284l-20.83-12.954c6.246-16.452,7.706-34.338,4.207-51.584l16.623-10.342
	c13.636,13.022,35.243,12.527,48.256-1.109c10.769-11.273,12.527-28.407,4.284-41.634c-3.183-5.086-7.654-9.242-12.971-12.023
	c-0.145-5.999-1.903-11.853-5.069-16.956c-9.975-15.991-31.036-20.873-47.027-10.897c-13.167,8.218-19.14,24.286-14.524,39.108
	l-13.235,8.235c-35.191-37.743-94.319-39.817-132.062-4.625c-1.596,1.485-3.14,3.029-4.625,4.625l-13.235-8.235
	c5.649-17.988-4.352-37.146-22.332-42.795c-14.857-4.668-30.993,1.314-39.219,14.541c-3.166,5.103-4.924,10.957-5.069,16.956
	c-5.316,2.782-9.788,6.938-12.971,12.023C84.915,103.782,89.822,124.809,105.813,134.767z M159.113,238.293
	c-4.002,2.492-5.222,7.748-2.739,11.75c4.975,8.013,2.517,18.543-5.487,23.526c-8.013,4.975-18.543,2.517-23.526-5.495
	c-2.21-3.575-3.004-7.859-2.219-11.989c0.768-4.301-1.835-8.482-6.033-9.694c-4.053-1.126-7.543-3.729-9.771-7.296
	c-4.975-8.013-2.517-18.543,5.487-23.526c8.013-4.975,18.543-2.517,23.526,5.487l0,0c2.492,4.002,7.748,5.222,11.75,2.739
	l25.6-15.915c3.004,4.855,6.451,9.429,10.291,13.653L159.113,238.293z M361.975,223.787c4.002,2.483,9.259,1.263,11.75-2.739
	c4.983-8.013,15.514-10.47,23.526-5.487c8.013,4.983,10.47,15.514,5.487,23.526c-2.236,3.567-5.717,6.161-9.771,7.287
	c-4.198,1.212-6.801,5.393-6.033,9.694c0.785,4.139-0.009,8.414-2.227,11.998c-4.983,8.013-15.514,10.47-23.526,5.487
	s-10.47-15.514-5.487-23.526c2.483-4.002,1.263-9.259-2.739-11.75l-26.854-16.708c3.84-4.241,7.287-8.823,10.291-13.696
	L361.975,223.787z M352.922,97.579c4.002-2.492,5.231-7.748,2.748-11.75c0,0,0-0.009-0.009-0.009
	c-4.975-8.013-2.517-18.543,5.495-23.526c8.013-4.975,18.543-2.517,23.526,5.495l0,0c2.21,3.584,3.004,7.859,2.219,11.998
	c-0.768,4.301,1.835,8.482,6.033,9.694c4.053,1.126,7.535,3.729,9.771,7.287c4.975,8.013,2.517,18.543-5.495,23.526
	c-8.013,4.983-18.543,2.517-23.526-5.495c-2.492-4.002-7.748-5.222-11.75-2.739l-19.081,11.878
	c-2.185-5.282-4.838-10.359-7.936-15.164L352.922,97.579z M256,82.603c42.377-0.043,76.757,34.27,76.809,76.638
	c0.026,24.192-11.358,46.985-30.729,61.491c-2.15,1.613-3.413,4.139-3.413,6.827v34.244H281.6v-25.6h-17.067v25.6h-17.067v-25.6
	H230.4v25.6h-17.067V227.55c0-2.688-1.263-5.214-3.413-6.827c-33.911-25.412-40.798-73.498-15.386-107.409
	C209.033,93.961,231.817,82.577,256,82.603z M109.329,96.768c2.236-3.558,5.717-6.161,9.771-7.287
	c4.198-1.212,6.801-5.393,6.033-9.694c-0.785-4.139,0.009-8.422,2.227-11.998c4.975-8.013,15.514-10.47,23.526-5.495
	c8.013,4.975,10.47,15.514,5.487,23.526c-2.492,4.002-1.271,9.267,2.731,11.75c0,0,0.009,0,0.009,0.009l17.997,11.196
	c-3.098,4.804-5.751,9.882-7.936,15.164l-19.081-11.878c-4.002-2.483-9.259-1.263-11.75,2.739
	c-4.975,8.013-15.514,10.47-23.526,5.495C106.812,115.311,104.354,104.781,109.329,96.768z"/>
<g>
</g>
<g>
</g>
<g>
</g>
<g>
</g>
<g>
</g>
<g>
</g>
<g>
</g>
<g>
</g>
<g>
</g>
<g>
</g>
<g>
</g>
<g>
</g>
<g>
</g>
<g>
</g>
<g>
</g>
</svg>
